<?xml version="1.0" encoding="UTF-8"?>
<svg id="Layer_1" data-name="Layer 1" xmlns="http://www.w3.org/2000/svg" viewBox="0 0 21 23.92">
  <defs>
    <style>
      .cls-1 {
        fill: #34363a;
      }

      .cls-2 {
        fill: #fff;
      }
    </style>
  </defs>
  <g id="Generative_Object" data-name="Generative Object">
    <g>
      <path class="cls-1" d="M17.08,0c.01.1.15.03.21.05.24.08.44.41.56.62v12.44s-.11.02-.15.03c0,0-.02-.04-.15-.05-.07-.02-.13-.03-.21-.05s-.13-.04-.21-.05c-.09-.02-.16-.04-.26-.05-.1-.01-.2-.04-.31-.05-.52-.06-.93,0-1.44,0-.11,0-.29.05-.31.05-4.23.02-8.46-.02-12.69,0-.29.18-.35.61,0,.77h10.59v.05c-.1-.03-.08.03-.1.05-.91.64-1.67,1.32-2.15,2.36H2.31c-.5-.04-.55.54-.18.77h7.95l.08.1c-.08,0-.04.1-.05.15,0,.01-.04.14-.05.21-.01.08-.04.17-.05.26-.01.08-.04.17-.05.26-.02.17-.04.33-.05.51-.03.3.01.51,0,.72,0,.1.03.18-.08.26H2.13c-.31.08-.34.67.03.72l7.82.05c.07.06.09.13.13.21,0,0,0,.07.05.15,0,.02.02.08.05.15.04.09.03.15.1.31.58,1.28,1.26,2.19,2.49,2.92H.72c-.01-.1-.15-.03-.21-.05-.09-.03-.49-.47-.51-.56V.62C.02.52.43.09.51.05c.05-.02.19.05.21-.05h16.36Z"/>
      <path class="cls-2" d="M15.69,3.39c0,.08.2.19.21.21.08.29-.13.42-.36.51H2.21c-.33-.21-.36-.47-.05-.72h13.54Z"/>
      <path class="cls-2" d="M3.59,6.56c.21,0,.41,0,.62,0,.02,0,.03,0,.05,0,1.1.01,2.19,0,3.28,0,.03,0,.07,0,.1,0,.89,0,1.78,0,2.67,0,.15,0,.31,0,.46,0,.32,0,.65,0,.97,0,.08,0,.17,0,.26,0,.2,0,.41,0,.62,0,.71,0,2.34-.13,2.92,0,.07.01.34.2.36.26,0,.03,0,.23,0,.26,0,.01-.21.13-.21.21H2.18c-.37-.18-.28-.63.13-.72.29-.06.94,0,1.28,0Z"/>
      <path class="cls-2" d="M15.9,10s0,.23,0,.26c0,.01-.21.15-.23.21H2.18c-.3-.18-.32-.51,0-.67h13.49c.03.06.23.19.23.21Z"/>
    </g>
    <g>
      <path class="cls-1" d="M16.36,13.59c.13.01.29.03.41.05.03,0,.14.04.21.05.06.01.14.04.21.05s.14.03.21.05c.04.01.11.04.15.05,0,0,.03.03.1.05,1.32.56,2.47,1.64,3.03,2.97.02.04.03.1.05.15.02.05.04.11.05.15s.04.11.05.15c.02.06.04.14.05.21s.04.17.05.21c.02.09.04.22.05.31.03.4.03,1.03,0,1.44-.01.09-.04.21-.05.31,0,.03-.04.14-.05.21-.01.06-.04.14-.05.21,0,.02-.04.1-.05.15-.01.04-.04.11-.05.15-.58,1.44-1.74,2.57-3.18,3.13-.05.02-.11.04-.15.05-.05.02-.13.05-.15.05-.06.02-.15.04-.21.05-.08.02-.18.04-.26.05-.11.02-.25.04-.36.05-.35.02-.88.03-1.23,0-.09-.01-.21-.04-.31-.05-.08-.01-.18-.03-.26-.05-.06-.01-.14-.04-.21-.05-.02,0-.1-.04-.15-.05-.04-.01-.11-.04-.15-.05-1.41-.55-2.63-1.7-3.18-3.13-.02-.04-.03-.11-.05-.15s-.04-.11-.05-.15c-.02-.06-.04-.14-.05-.21s-.04-.15-.05-.21c-.02-.09-.04-.22-.05-.31-.03-.4-.03-1.04,0-1.44.01-.09.04-.21.05-.31,0-.03.04-.14.05-.21.01-.06.04-.14.05-.21,0-.02.04-.1.05-.15.01-.04.04-.11.05-.15.54-1.35,1.72-2.6,3.08-3.13.04-.02.1-.03.15-.05.05-.02.11-.04.15-.05.05-.02.13-.05.15-.05.06-.02.15-.04.21-.05.08-.02.19-.04.26-.05.11-.02.26-.04.36-.05.31-.03.76-.02,1.08,0Z"/>
      <g>
        <path class="cls-2" d="M15.95,15.08c.18.07.83,1.84.97,2.13.1.14.28.05.41.08.18.05.3.02.46.05.14.02.28.03.41.05.14.02.27.03.41.05.15.03.36.02.46.05.11.04.37.12.41.26,0,.03,0,.13,0,.15-.07.2-1.74,1.43-1.8,1.62-.05.11.05.17.05.18,0,.13.05.21.05.26.01.09.04.18.05.26.01.09.03.17.05.26s.04.17.05.26.03.17.05.26.04.17.05.26c.01.09.05.19.05.21,0,.1.05.24.05.26,0,.06.01.17,0,.21-.04.1-.26.17-.38.15-.28-.04-1.54-1.04-1.8-1.08-.49-.08-1.91,1.26-2.31,1.03-.01,0-.13-.19-.13-.21,0-.02,0-.03,0-.05,0-.02.04-.22.05-.31,0-.03.04-.17.05-.26.01-.07.04-.17.05-.26.01-.07.04-.17.05-.26,0-.07.04-.17.05-.26,0-.02.04-.11.05-.21.02-.09.04-.17.05-.26.01-.08.05-.12.05-.26,0,0,.09-.04.05-.18-.29-.47-2.49-1.64-1.38-2.03.09-.03.32-.02.46-.05.14-.02.27-.03.41-.05.13-.02.27-.03.41-.05.17-.03.28,0,.46-.05.1-.02.23.01.33,0,.09-.09.09-.27.13-.36.24-.32.69-1.76.92-1.85.02,0,.19,0,.21,0Z"/>
        <path class="cls-1" d="M16.82,17.95c.2.06.29.02.46.05.18.03.34.03.51.05.12.03.24.07.36.08.05.07-1.12.96-1.18,1.13-.05.14.03.35.05.49,0,.13.05.19.05.21,0,.11.04.2.05.26.01.09.04.18.05.26.01.07.05.23.05.26,0,.07,0,.14,0,.21h-.05c-1.01-.88-1.6-.87-2.64-.05-.12.01-.08-.13-.08-.21,0-.01.04-.1.05-.21.02-.09.04-.16.05-.26.01-.08.04-.16.05-.26,0-.04.06-.13.05-.26.01-.11.1-.3.05-.44-.07-.21-1.05-.9-1.23-1.15.16.04.31-.03.46-.05.16-.02.3-.02.46-.05.16-.03.29-.01.46-.05.06-.01.19.02.23,0,.22-.11.59-1.2.69-1.49,0,0,.03,0,.05,0,.16.25.52,1.41.74,1.49.05.02.16-.01.23,0Z"/>
      </g>
    </g>
  </g>
</svg>