<?xml version="1.0" encoding="UTF-8"?>
<svg xmlns="http://www.w3.org/2000/svg" id="Layer_1" data-name="Layer 1" viewBox="0 0 24 24">
  <path d="M24,7.5v3.5c0,.276-.224,.5-.5,.5s-.5-.224-.5-.5v-3.5c0-1.93-1.57-3.5-3.5-3.5H4.5c-1.93,0-3.5,1.57-3.5,3.5v4c0,1.93,1.57,3.5,3.5,3.5h7c.276,0,.5,.224,.5,.5s-.224,.5-.5,.5H4.5c-2.481,0-4.5-2.019-4.5-4.5V7.5C0,5.019,2.019,3,4.5,3h15c2.481,0,4.5,2.019,4.5,4.5Zm-14.604,4.104c.195,.195,.512,.195,.707,0l1.396-1.396,1.396,1.396c.195,.195,.512,.195,.707,0s.195-.512,0-.707l-1.396-1.396,1.396-1.396c.195-.195,.195-.512,0-.707s-.512-.195-.707,0l-1.396,1.396-1.396-1.396c-.195-.195-.512-.195-.707,0s-.195,.512,0,.707l1.396,1.396-1.396,1.396c-.195,.195-.195,.512,0,.707Zm-1.895-4.207c-.195-.195-.512-.195-.707,0l-1.396,1.396-1.396-1.396c-.195-.195-.512-.195-.707,0s-.195,.512,0,.707l1.396,1.396-1.396,1.396c-.195,.195-.195,.512,0,.707s.512,.195,.707,0l1.396-1.396,1.396,1.396c.195,.195,.512,.195,.707,0s.195-.512,0-.707l-1.396-1.396,1.396-1.396c.195-.195,.195-.512,0-.707Zm16.499,11.104v2c0,1.93-1.57,3.5-3.5,3.5h-4c-1.93,0-3.5-1.57-3.5-3.5v-2c0-1.391,.822-2.585,2-3.149v-1.851c0-1.93,1.57-3.5,3.5-3.5s3.5,1.57,3.5,3.5v1.851c1.178,.564,2,1.758,2,3.149Zm-8-3.449c.165-.024,.329-.051,.5-.051h4c.171,0,.335,.027,.5,.051v-1.551c0-1.379-1.121-2.5-2.5-2.5s-2.5,1.121-2.5,2.5v1.551Zm7,3.449c0-1.379-1.121-2.5-2.5-2.5h-4c-1.379,0-2.5,1.121-2.5,2.5v2c0,1.379,1.121,2.5,2.5,2.5h4c1.379,0,2.5-1.121,2.5-2.5v-2Zm-4.5,0c-.552,0-1,.448-1,1s.448,1,1,1,1-.448,1-1-.448-1-1-1Z"/>
</svg>
