<?xml version="1.0" encoding="UTF-8"?>
<svg xmlns="http://www.w3.org/2000/svg" id="Layer_1" data-name="Layer 1" viewBox="0 0 24 24">
  <path d="m.107,8.81c-.171-.216-.134-.531.082-.702L9.225.959c1.636-1.278,3.915-1.28,5.549-.001l9.037,7.15c.216.171.253.486.082.702-.1.125-.245.19-.393.19-.109,0-.219-.035-.311-.108L14.154,1.743c-1.267-.992-3.042-.991-4.311.001L.811,8.892c-.215.17-.529.136-.703-.082Zm4.338,9.193c-2.534.28-4.445,2.417-4.445,4.97v.527c0,.276.224.5.5.5s.5-.224.5-.5v-.527c0-2.042,1.528-3.751,3.555-3.976.274-.03.473-.277.442-.552-.03-.275-.281-.475-.552-.442Zm2.555-4.503c0,1.379-1.121,2.5-2.5,2.5s-2.5-1.121-2.5-2.5,1.121-2.5,2.5-2.5,2.5,1.122,2.5,2.5Zm-1,0c0-.827-.673-1.5-1.5-1.5s-1.5.673-1.5,1.5.673,1.5,1.5,1.5,1.5-.673,1.5-1.5Zm13.555,4.503c-.271-.033-.521.167-.552.442-.03.274.168.521.442.552,2.026.225,3.555,1.934,3.555,3.976v.527c0,.276.224.5.5.5s.5-.224.5-.5v-.527c0-2.553-1.911-4.689-4.445-4.97Zm-.055-2.003c-1.379,0-2.5-1.121-2.5-2.5s1.121-2.5,2.5-2.5,2.5,1.122,2.5,2.5-1.121,2.5-2.5,2.5Zm0-1c.827,0,1.5-.673,1.5-1.5s-.673-1.5-1.5-1.5-1.5.673-1.5,1.5.673,1.5,1.5,1.5Zm-4.5-5c0,1.654-1.346,3-3,3s-3-1.346-3-3,1.346-3,3-3,3,1.346,3,3Zm-1,0c0-1.103-.897-2-2-2s-2,.897-2,2,.897,2,2,2,2-.897,2-2Zm-2,5c-2.757,0-5,2.243-5,5v3.5c0,.276.224.5.5.5s.5-.224.5-.5v-3.5c0-2.206,1.794-4,4-4s4,1.794,4,4v3.5c0,.276.224.5.5.5s.5-.224.5-.5v-3.5c0-2.757-2.243-5-5-5Z"/>
</svg>
