<svg id="Layer_1" viewBox="0 0 24 24" xmlns="http://www.w3.org/2000/svg" data-name="Layer 1"><path d="m23 0h-22c-.552 0-1 .448-1 1s.448 1 1 1v11c0 2.757 2.243 5 5 5h5v2.277c-.595.346-1 .984-1 1.723 0 1.105.895 2 2 2s2-.895 2-2c0-.738-.405-1.376-1-1.723v-2.277h5c2.757 0 5-2.243 5-5v-11c.552 0 1-.448 1-1s-.448-1-1-1zm-4 12c0 1.654-1.346 3-3 3h-8c-1.654 0-3-1.346-3-3v-6c0-1.654 1.346-3 3-3h2.453c.626 0 1.227.191 1.737.554l.369.261s0 0 0 0c.17.121.37.185.579.185h2.862c1.654 0 3 1.346 3 3zm-12-4v-2c0-.551.449-1 1-1h2.453c.208 0 .409.064.579.185l.369.262c.51.362 1.111.553 1.736.553h2.862c.551 0 1 .449 1 1v1zm10 2v2c0 .551-.449 1-1 1h-8c-.551 0-1-.449-1-1v-2z"/></svg>