<svg id="Layer_1" viewBox="0 0 24 24" xmlns="http://www.w3.org/2000/svg" data-name="Layer 1"><path d="m14.652 10.879-5.193 5.193c-.598.598-1.393.927-2.239.927h-.22v-.22c0-.846.329-1.641.927-2.239l5.193-5.193 1.532 1.531zm1.765-4.379c-.289 0-.561.112-.764.316l-1.118 1.118 1.531 1.531 1.117-1.117c.41-.37.412-1.15.015-1.517-.219-.219-.491-.332-.781-.332zm7.583-1.5v14c0 2.757-2.243 5-5 5h-14c-2.757 0-5-2.243-5-5v-14c0-2.757 2.243-5 5-5h14c2.757 0 5 2.243 5 5zm-4.505 2.582c0-.838-.332-1.638-.897-2.179-1.146-1.195-3.214-1.197-4.359 0l-7.725 7.725c-.976.976-1.513 2.273-1.513 3.653v.699c0 .839.682 1.521 1.521 1.521h.699c1.38 0 2.678-.538 3.653-1.513l7.71-7.71c.58-.557.913-1.357.912-2.195z"/></svg>