<?xml version="1.0" encoding="UTF-8"?>
<svg id="Layer_1" data-name="Layer 1" xmlns="http://www.w3.org/2000/svg" viewBox="0 0 20 23.9">
  <defs>
    <style>
      .cls-1 {
        fill: none;
        stroke: #000;
        stroke-miterlimit: 10;
        stroke-width: .5px;
      }
    </style>
  </defs>
  <path class="cls-1" d="M14.88.25H5.13C2.44.25.25,2.44.25,5.13v15.6c0,1.2.72,2.27,1.84,2.72,1.12.45,2.38.17,3.23-.74l4.67-5.37,4.7,5.4c.57.6,1.33.92,2.12.92.36,0,.73-.07,1.09-.21,1.12-.45,1.84-1.51,1.84-2.72V5.13c0-2.69-2.19-4.88-4.88-4.88h0ZM14.59,8.51l-1.92,1.57.79,2.42c.11.33,0,.69-.27.9-.27.21-.65.23-.94.04l-2.24-1.46-2.2,1.47c-.14.09-.29.14-.45.14-.17,0-.34-.05-.49-.16-.28-.21-.39-.57-.29-.89l.76-2.45-1.93-1.57c-.26-.22-.35-.58-.24-.9.12-.32.42-.53.76-.53h2.44l.86-2.42c.12-.32.42-.53.76-.53s.64.21.76.53l.86,2.42h2.44c.34,0,.65.21.76.53s.02.68-.24.9h0Z"/>
</svg>