<?xml version="1.0" encoding="UTF-8"?>
<svg id="Layer_1" xmlns="http://www.w3.org/2000/svg" version="1.1" viewBox="0 0 59.8 59.8">
  <!-- Generator: Adobe Illustrator 30.0.0, SVG Export Plug-In . SVG Version: 2.1.1 Build 123)  -->
  <defs>
    <style>
      .st0 {
        fill: none;
      }

      .st0, .st1 {
        stroke: #fff;
        stroke-miterlimit: 10;
        stroke-width: .8px;
      }

      .st1 {
        fill: #d65a39;
      }
    </style>
  </defs>
  <g id="Generative_Object">
    <path class="st1" d="M28.3,2.9c11.8,4.2,24,15,19.6,28.8-1.5,4.5-3.7,7-6.8,10.4h-.2c8.1-12.4,1.5-23.4-10.4-29.9h-.1c0,10.5.7,21.1.2,31.5-.6,14.4-19,11.2-17.9,0,.6-6.3,7.7-10,13.2-6.9.9.5,1.6,1.4,2.3,1.7h0c0-.1,0-35.6,0-35.6h0Z"/>
    <path class="st0" d="M28.3,38.6V2.9c11.9,4.2,24,15,19.6,28.8-1.5,4.5-3.7,7-6.8,10.4-.3.4-.7.8-1,1.2.3-.4.6-.8.9-1.3,8.1-12.3,1.5-23.3-10.4-29.7h-.1c0,10.5.7,21.1.2,31.5-.6,14.4-19,11.2-17.9,0,.6-6.3,7.7-10,13.2-6.9.9.5,1.6,1.4,2.3,1.7,0,0,0,0,0,0h0Z"/>
  </g>
</svg>