<?xml version="1.0" encoding="UTF-8"?>
<svg id="Layer_1" data-name="Layer 1" xmlns="http://www.w3.org/2000/svg" viewBox="0 0 23 23.03">
  <defs>
    <style>
      .cls-1 {
        fill: #d65a39;
      }

      .cls-2 {
        fill: #386641;
      }
    </style>
  </defs>
  <path class="cls-2" d="M6.84,19.25c-2.29-2.35-3.89-5.53-4.29-8.81-.48-3.93.99-7.92,4.73-9.64,3.46-1.59,7.86-.71,10.76,1.63,1.63,1.32,3.42,4.11,4.14,6.08,1.76,4.78.87,11.88-4.47,13.93-3.94,1.52-8.1-.36-10.87-3.2ZM4.28,4.87c-2.22,4.22-.83,9.78,2.19,13.23.09.1.24.3.37.32l.05.13c3.7,3.81,10.32,5.38,13.82.43,2.65-3.75,2.07-9.24,0-13.11-1.08-2.02-4.09-3.83-6.24-4.49-3.87-1.2-8.2-.26-10.18,3.5Z"/>
  <path class="cls-1" d="M6.84,19.25v1.41c-1.87.45-4.04-.73-4.33-2.7.02-2.45-.03-4.89,0-7.34,0-.05-.02-.14.03-.18.4,3.28,2,6.46,4.29,8.81Z"/>
  <path class="cls-2" d="M10.88,22.59c.05.05-.01.05-.05.06-4.36,1.31-8.57-.83-10.13-5.05-.98-2.63-.89-5.94.02-8.58.23-.67.53-1.35.91-1.94-.27,1.21-.69,2.36-.9,3.58-.45,2.57-.22,5.45,1.09,7.74,1.44,2.53,4.09,3.99,7.03,3.84.24-.01.86-.15,1.02-.13.09.01.67.34.81.41.05.02.2.06.2.07Z"/>
  <path class="cls-1" d="M10.11,4.42c0,.98,0,1.97,0,2.95h-3.27v1.91s-.18.23-.22.29c-.64,1.16-.04,2.4,1.1,2.92,1.47.66,3.35-.01,3.78-1.63.03-.11.02-.29.06-.38.03-.07.31-.31.39-.44.4-.62.39-1.45-.08-2.03-.1-.12-.31-.25-.33-.37-.06-.38.03-.99.03-1.41,0-.09-.03-.17-.03-.25,0-.48,0-.95,0-1.43,1.78-.08,3.57,1.03,4.17,2.72-.25-.13-.51-.25-.77-.38,0,1.69,0,3.37,0,5.06-.18.18-.35.39-.54.56-.04.04-.29.24-.32.25-.04.01-.65-.13-.78-.14-1.01-.07-1.93.2-2.72.84-.04.04-.21.22-.23.22h-3.46s-.06.08-.05.11v4.63c-.13-.02-.28-.22-.37-.32-3.03-3.45-4.42-9.01-2.19-13.23.53-.25,1.09-.39,1.68-.45h4.15Z"/>
  <path class="cls-2" d="M15.72,7.27c1.09.56,2.31,1.11,3.35,1.72.19.11.85.51.9.7.03,2.67,0,5.33,0,8,0,1.06.05,1.85-.98,2.47-2.12,1.29-4.6-1.17-2.73-2.73.76-.64,1.88-.68,2.72-.18v-7.1s-.06-.09-.08-.11l-2.93-1.51c-.06,1.74-.03,3.49-.03,5.24,0,1.48.26,2.72-1.11,3.72-1.12.82-2.76.83-3.85-.04-1.65-1.31-1.02-3.57.85-4.23,1.08-.38,2.19-.17,3.12.47,0-.59,0-1.17,0-1.76,0-1.69,0-3.37,0-5.06.25.13.51.25.77.38Z"/>
  <path class="cls-2" d="M10.11,4.42c0-.99,0-1.97,0-2.96l.08-.02c1.39.8,2.93,1.41,4.31,2.19.31.17.62.39.88.62.13.12.56.55.58.69.02.09-.02.27-.02.35.01.33.05.66.03.99,0,.04,0,.14-.06.14-.36-.76-1.04-1.37-1.76-1.78-.97-.55-2.05-.98-3.01-1.55v7.13c-.03,1.59-1.7,2.48-3.12,1.9s-1.6-2.38-.18-3.11c.75-.39,1.53-.36,2.27.04,0-.57,0-1.13,0-1.7,0-.98,0-1.97,0-2.95Z"/>
</svg>