<?xml version="1.0" encoding="UTF-8"?>
<svg id="Layer_2" data-name="Layer 2" xmlns="http://www.w3.org/2000/svg" viewBox="0 0 60 60">
  <defs>
    <style>
      .cls-1, .cls-2 {
        fill: #d65a39;
      }

      .cls-2, .cls-3 {
        stroke: #d65a39;
        stroke-miterlimit: 10;
        stroke-width: .75px;
      }

      .cls-3 {
        fill: none;
      }
    </style>
  </defs>
  <path class="cls-1" d="M30,0C13.43,0,0,13.43,0,30s13.43,30,30,30,30-13.43,30-30S46.57,0,30,0ZM14.9,42.44c-.23.12-4.82.19-5.2.12-1.35-.24-.94-1.1-.9-2.14h6.54c-.14.57.13,1.72-.44,2.02ZM44.71,40.29l6.96.24c-.25.73.2,1.58-.65,1.96-.23.1-4.6.13-5,.08-1.56-.2-.64-1.27-1.3-2.28l.19-1.79c-3.32,1.89-7.59,2.07-11.09.56l.07.45-1.02.51H7.56c-1.64-.17-2.86-1.35-3.16-2.96-.24-1.29-.24-13.08,0-14.38.47-2.51,2.19-2.94,4.39-3.06,6.91-.39,13.98.41,20.91.02l1.02.39.04.28c4.34-3.93,11.7-3.93,16.04,0l.03-.28c.27-.33.65-.33,1.02-.37,3.2-.31,7.69-.61,8.16,3.53.27,2.37.29,11.27-.04,13.57-.74,5.11-7.69,2.78-11.26,3.53Z"/>
  <g id="Generative_Object" data-name="Generative Object">
    <path class="cls-2" d="M38.01,24.31c1.44-.28,3.18.38,4.13,1.48.64.73,1.86,3.4.66,3.93-.12.05-2.44-.24-2.55-.31-.29-.15-.5-1.26-.87-1.68-.48-.55-1.56-.7-1.84-1.12-.49-.74-.63-2.09.46-2.29Z"/>
    <g>
      <path class="cls-3" d="M38.26,22.57c6.94-.66,9.5,9.83,2.04,11.97-8.21,2.36-10.85-11.14-2.04-11.97Z"/>
      <path class="cls-3" d="M38.26,19.92c10.15-.72,13.19,14.78,2.35,17.28-11.94,2.75-14.83-16.4-2.35-17.28Z"/>
      <line class="cls-3" x1="9.5" y1="34.16" x2="23.47" y2="34.16"/>
      <line class="cls-3" x1="9.5" y1="31.29" x2="23.57" y2="31.29"/>
      <line class="cls-3" x1="23.47" y1="28.44" x2="9.29" y2="28.45"/>
      <line class="cls-3" x1="23.27" y1="25.58" x2="9.4" y2="25.58"/>
      <line class="cls-3" x1="43.67" y1="39.51" x2="44.71" y2="40.29"/>
      <path class="cls-3" d="M30.71,20.02l-1.02-.39c-6.93.39-14-.41-20.91-.02-2.2.12-3.91.55-4.39,3.06-.24,1.3-.24,13.09,0,14.38.3,1.6,1.52,2.79,3.16,2.96h25.29l1.02-.51"/>
      <path class="cls-3" d="M44.71,40.29c.67,1.01-.26,2.08,1.3,2.28.4.05,4.77.02,5-.08.86-.38.41-1.22.65-1.96"/>
      <path class="cls-3" d="M46.83,20.02c.27-.33.65-.33,1.02-.37,3.2-.31,7.69-.61,8.16,3.53.27,2.37.29,11.27-.04,13.57-.74,5.11-7.69,2.78-11.26,3.53"/>
      <path class="cls-3" d="M8.8,40.42c-.04,1.04-.45,1.9.9,2.14.38.07,4.97,0,5.2-.12.57-.3.3-1.45.44-2.02"/>
      <path class="cls-3" d="M50.28,28.71c0-15.15-22.99-15.15-22.99,0,0,15.15,22.99,15.15,22.99,0Z"/>
    </g>
  </g>
</svg>